<svg width="177" height="32" viewBox="0 0 177 32" fill="none" xmlns="http://www.w3.org/2000/svg">
<path d="M7.21828 19.2533C6.89106 18.8973 6.69825 18.4434 6.67171 17.9665V12.0186C6.69818 11.5416 6.89099 11.0877 7.21828 10.7318L7.65055 10.3109C7.79551 10.1695 7.87691 9.97787 7.87691 9.77808C7.87691 9.57829 7.79551 9.38665 7.65055 9.24525L3.06545 4.78025C2.92005 4.63926 2.72321 4.5601 2.518 4.5601C2.31279 4.5601 2.11595 4.63926 1.97055 4.78025L0.225232 6.47964C0.0809468 6.6214 0 6.81289 0 7.01247C0 7.21205 0.0809468 7.40354 0.225232 7.5453L3.4977 10.7316C3.82557 11.0872 4.01865 11.5413 4.04486 12.0185V17.9663C4.01872 18.4433 3.82562 18.897 3.4977 19.2523L0.225232 22.4398C0.0809468 22.5816 0 22.7732 0 22.9726C0 23.1722 0.0809468 23.3637 0.225232 23.5055L1.97055 25.2048C2.11596 25.3458 2.3128 25.425 2.518 25.425C2.7232 25.425 2.92004 25.3458 3.06545 25.2048L7.65055 20.7395C7.79549 20.598 7.87689 20.4065 7.87689 20.2068C7.87689 20.0069 7.79549 19.8154 7.65055 19.674L7.21828 19.2533Z" fill="#583BD1"/>
<path d="M19.819 23.0026C19.4536 23.3212 18.9876 23.5092 18.4977 23.5356H12.3908C11.9006 23.5092 11.4342 23.3214 11.0683 23.0026L10.6371 22.5807C10.4912 22.4401 10.2943 22.3614 10.0891 22.3614C9.88396 22.3614 9.68707 22.4401 9.54117 22.5807L4.95665 27.0457C4.81191 27.1875 4.73065 27.3793 4.73065 27.5792C4.73065 27.779 4.81191 27.9708 4.95665 28.1125L6.70196 29.812C6.84769 29.9525 7.04447 30.0312 7.24955 30.0312C7.45463 30.0312 7.65142 29.9525 7.79715 29.812L11.0689 26.624C11.4347 26.3055 11.901 26.1177 12.391 26.0913H18.4996C18.9895 26.1175 19.4555 26.3054 19.8209 26.624L23.0941 29.812C23.2398 29.9525 23.4364 30.0312 23.6415 30.0312C23.8464 30.0312 24.0432 29.9525 24.1887 29.812L25.934 28.1125C26.0788 27.9708 26.1601 27.779 26.1601 27.5792C26.1601 27.3793 26.0788 27.1875 25.934 27.0457L21.3462 22.5804C21.2006 22.4398 21.004 22.3611 20.7991 22.3611C20.5942 22.3611 20.3974 22.4398 20.2519 22.5804L19.819 23.0026Z" fill="#583BD1"/>
<path d="M23.7798 10.7777C24.1078 11.1339 24.3012 11.5886 24.3279 12.0664V18.0119C24.3011 18.4895 24.1077 18.9437 23.7798 19.2996L23.3474 19.7214C23.2028 19.8631 23.1218 20.0546 23.1218 20.2544C23.1218 20.454 23.2028 20.6455 23.3474 20.7871L27.9337 25.2516C28.0791 25.3925 28.2761 25.4716 28.4811 25.4716C28.6863 25.4716 28.8831 25.3925 29.0285 25.2516L30.7738 23.5513C30.9186 23.4098 31 23.2181 31 23.0184C31 22.8186 30.9186 22.627 30.7738 22.4855L27.5021 19.299C27.174 18.9432 26.9805 18.4889 26.9537 18.0114L26.9546 12.0658C26.9809 11.588 27.174 11.1334 27.5021 10.7771L30.7738 7.59076C30.9186 7.44951 31 7.25808 31 7.0585C31 6.85892 30.9186 6.66748 30.7738 6.52624L29.0285 4.82586C28.9566 4.75587 28.8713 4.70034 28.7774 4.66246C28.6834 4.62458 28.5829 4.60507 28.4811 4.60507C28.3795 4.60507 28.2788 4.62458 28.185 4.66246C28.0909 4.70034 28.0056 4.75587 27.9337 4.82586L23.3474 9.29015C23.2028 9.43179 23.1218 9.62337 23.1218 9.82305C23.1218 10.0227 23.2028 10.2143 23.3474 10.3559L23.7798 10.7777Z" fill="#583BD1"/>
<path d="M11.1789 7.02843C11.5442 6.70939 12.0105 6.52139 12.5006 6.49553H18.6079C19.0978 6.52184 19.5638 6.70979 19.9294 7.02843L20.3627 7.45016C20.4344 7.52014 20.5197 7.57564 20.6136 7.61352C20.7075 7.65138 20.808 7.67089 20.9096 7.67089C21.0112 7.67089 21.1119 7.65138 21.2056 7.61352C21.2995 7.57564 21.3848 7.52014 21.4567 7.45016L26.0424 2.98488C26.187 2.84312 26.2682 2.65136 26.2682 2.45149C26.2682 2.25162 26.187 2.05986 26.0424 1.91809L24.2971 0.220693C24.1518 0.079379 23.9549 0 23.7495 0C23.5442 0 23.3473 0.079379 23.202 0.220693L19.9295 3.40705C19.564 3.72568 19.0979 3.91363 18.608 3.93993H12.5006C12.0105 3.91408 11.5442 3.72607 11.1789 3.40705L7.90643 0.220693C7.76071 0.0802391 7.56396 0.00145211 7.35891 0.00145211C7.15387 0.00145211 6.95711 0.0802391 6.81138 0.220693L5.06607 1.92007C4.92137 2.06182 4.84015 2.25355 4.84015 2.4534C4.84015 2.65325 4.92137 2.84498 5.06607 2.98672L9.65074 7.45002C9.79598 7.59134 9.99292 7.67071 10.1983 7.67071C10.4036 7.67071 10.6005 7.59134 10.7458 7.45002L11.1789 7.02843Z" fill="#583BD1"/>
</svg>
